<svg version="1.2" xmlns="http://www.w3.org/2000/svg" viewBox="0 0 21 20" width="21" height="20">
	<title>Shape 9 copy</title>
	<style>
		.s0 { fill: #7a69e6 } 
	</style>
	<path id="Shape 9 copy" class="s0" d="m6.4 9.2c-0.2-0.3-0.7-0.3-1 0-0.3 0.2-0.3 0.7 0 1l3 3.4q0.2 0.2 0.5 0.3 0 0 0 0 0.3 0 0.5-0.3l8.9-9.1c0.2-0.3 0.2-0.7-0.1-1-0.2-0.3-0.7-0.3-1 0l-8.3 8.6zm10-7.2c-3.8-2.7-8.9-2.5-12.5 0.5-4.1 3.7-4.6 10-0.9 14.1 1.8 2.1 4.3 3.3 6.8 3.5 2.6 0.1 5.2-0.7 7.3-2.5 3.5-3 4.5-8.1 2.2-12.2-0.1-0.3-0.6-0.5-0.9-0.3-0.4 0.2-0.5 0.6-0.3 0.9 1.9 3.6 1.1 7.9-2 10.6-3.5 3.1-9 2.7-12.1-0.9-3.1-3.5-2.7-9 0.9-12.1 3-2.6 7.4-2.8 10.7-0.5 0.3 0.3 0.7 0.2 0.9-0.1 0.3-0.3 0.2-0.8-0.1-1z"/>
</svg>