<svg version="1.2" xmlns="http://www.w3.org/2000/svg" viewBox="0 0 152 46" width="152" height="46">
	<title>Новый проект</title>
	<style>
		.s0 { fill: #32325d } 
	</style>
	<path id="Logo" fill-rule="evenodd" class="s0" d="m129.7 13.6q0 0 0 0c1.1 0 2.1 0.9 2.1 2.1v6.9c-0.2 4.8-4.1 8.7-8.9 8.9-5.1 0.2-9.5-3.8-9.7-8.9v-6.9q0 0 0 0c0-1.2 0.9-2.1 2.1-2.1q0 0 0 0c1.2 0 2.1 0.9 2.2 2.1v6.9c0 2.7 2.2 4.8 4.8 4.9 2.8 0.1 5.1-2.1 5.2-4.9v-6.9q0 0 0 0c0-1.2 1-2.1 2.2-2.1m-47.2 13.9c2.7 0 5-2.2 5-4.9 0-2.6-2.1-4.8-4.7-4.8-2.7-0.1-5 2-5 4.7-0.1 2.7 2 4.9 4.7 5zm0-13.9c5.1-0.1 9.2 4 9.3 9 0 4.9-3.9 8.9-8.7 9-5 0.2-9.2-3.7-9.4-8.7-0.1-5 3.8-9.1 8.8-9.3zm60.2 13.9c2.7 0 5-2.2 5-4.9 0-2.6-2.1-4.8-4.7-4.8-2.7-0.1-5 2-5.1 4.7 0 2.7 2.1 4.9 4.8 5zm0-13.9q0.1 0 0.2 0c5.2 0.1 9.3 4.4 9.1 9.6-0.1 5.1-4.4 9.1-9.6 9-5.1-0.2-9.2-4.4-9.1-9.6v-16.2c0.1-1.1 1-2 2.1-2 1.2-0.1 2.2 0.8 2.3 2v8.6l0.3-0.2c1.4-0.8 3-1.2 4.7-1.2 0 0-0.1 0 0 0zm-80.1 13.9c2.8 0 5-2.2 5.1-4.9 0-2.6-2.1-4.8-4.8-4.8-2.7-0.1-4.9 2-5 4.7-0.1 2.7 2 4.9 4.7 5zm7.2-13.9q0.1 0 0.1 0c1.1 0 2 1 2 2.1v16.1c-0.1 5.1-4.2 9.1-9.3 9-3.9 0.1-7.4-2.3-8.8-5.9v-0.1c-0.3-1.1 0.2-2.3 1.3-2.6q0.4-0.1 0.8-0.1c0.9 0 1.7 0.5 2 1.3v0.3c0.8 1.8 2.7 3 4.7 3 2.7 0 5-2.1 5-4.9v-1.6l-0.3 0.2c-1.4 0.8-3 1.2-4.7 1.2q-0.3 0-0.6 0c-5-0.1-8.9-4.3-8.7-9.3 0.1-5 4.3-8.9 9.3-8.7 1.7 0 3.4 0.5 4.9 1.3l0.2 0.2 0.1-0.3c0.4-0.7 1.2-1.2 2-1.2 0 0 0 0 0 0zm32.5 0q0.1 0 0.2 0 0 0-0.2 0zm0 0q0.1 0 0.2 0c5.1-0.1 9.2 4 9.3 9v7q0 0 0 0c0 1.1-1 2.1-2.1 2.1q0 0-0.1 0c-1.1 0-2.1-1-2.1-2.1v-7c-0.1-2.6-2.2-4.7-4.9-4.8-2.8-0.1-5.1 2.1-5.1 4.8v7q0 0 0 0c-0.1 1.1-1 2.1-2.2 2.1q0 0 0 0c-1.2 0-2.1-1-2.2-2.1v-23.2c0.1-1.1 1-2 2.1-2 1.2-0.1 2.2 0.8 2.3 2v8.6l0.3-0.2c1.4-0.7 2.9-1.2 4.5-1.2zm0 0q0 0 0 0c-4.2 0.1-0.9 0 0 0zm-79.2 32.4c-12.7 0-23.1-10.2-23.1-22.9 0-6.2 2.4-12 6.8-16.3 2.8-2.8 7.4-2.8 10.2 0 2.8 2.8 2.8 7.3 0 10.1-3.4 3.4-3.4 8.8 0 12.2 3.4 3.3 8.8 3.3 12.2 0 2.8-2.8 3.3-7.2 1.2-10.6l-5.9 5.9c-0.8 0.7-2 0.7-2.8-0.1-0.7-0.7-0.7-1.9 0-2.7l7.5-7.4c0.8-0.7 2-0.7 2.8 0 4.8 4.9 4.8 12.8 0 17.6-4.9 4.9-12.9 4.9-17.8 0-4.8-4.8-4.8-12.7 0-17.6 0.7-0.6 1-1.5 1-2.3 0-0.9-0.3-1.8-1-2.4-1.3-1.2-3.4-1.2-4.7 0-7.5 7.5-7.5 19.6 0 27 7.5 7.5 19.7 7.5 27.2 0 7.5-7.4 7.5-19.5 0-27-3.6-3.6-8.5-5.6-13.6-5.6-1.1 0-1.9-0.8-1.9-1.9q0 0 0 0c0-1.1 0.8-2 1.9-2 6.2 0 12 2.4 16.4 6.8 9 8.9 9 23.5 0 32.5-4.3 4.3-10.2 6.7-16.4 6.7z"/>
</svg>